HIERARCHY
ROOT Hips
{
	OFFSET 0.000000 83.214638 0.000000
	CHANNELS 6 Xposition Yposition Zposition Xrotation Yrotation Zrotation
	JOINT Pelvis
	{
		OFFSET 0.000000 0.000000 0.000000
		CHANNELS 3 Xrotation Yrotation Zrotation
		JOINT LeftUpLeg
		{
			OFFSET 8.479700 -4.795502 -0.379100
			CHANNELS 3 Xrotation Yrotation Zrotation
			JOINT LeftLeg
			{
				OFFSET 0.024144 -32.555107 0.112900
				CHANNELS 3 Xrotation Yrotation Zrotation
				JOINT LeftFoot
				{
					OFFSET -0.024144 -32.638630 -3.012600
					CHANNELS 3 Xrotation Yrotation Zrotation
					JOINT LeftToeBase
					{
						OFFSET 0.970200 -13.225400 11.864200
						CHANNELS 3 Xrotation Yrotation Zrotation
						End Site
						{
							OFFSET 0.000000 12.319262 0.000000
						}
					}
					JOINT LFootTongue
					{
						OFFSET 1.142400 -1.059800 6.665200
						CHANNELS 3 Xrotation Yrotation Zrotation
						End Site
						{
							OFFSET 0.000000 12.319262 0.000000
						}
					}
				}
				JOINT LeftPantLeg
				{
					OFFSET 0.918482 -16.533964 -2.284700
					CHANNELS 3 Xrotation Yrotation Zrotation
					End Site
					{
						OFFSET 0.350399 24.744368 0.000000
					}
				}
			}
		}
		JOINT RightUpLeg
		{
			OFFSET -8.479700 -4.795502 -0.379100
			CHANNELS 3 Xrotation Yrotation Zrotation
			JOINT RightLeg
			{
				OFFSET -0.023144 -32.555092 0.112900
				CHANNELS 3 Xrotation Yrotation Zrotation
				JOINT RightFoot
				{
					OFFSET 0.023144 -32.638641 -3.012700
					CHANNELS 3 Xrotation Yrotation Zrotation
					JOINT RightToeBase
					{
						OFFSET -0.970200 -13.225400 11.864200
						CHANNELS 3 Xrotation Yrotation Zrotation
						End Site
						{
							OFFSET 0.000000 12.319244 0.000000
						}
					}
					JOINT RFootTongue
					{
						OFFSET -1.142200 -1.059800 6.665200
						CHANNELS 3 Xrotation Yrotation Zrotation
						End Site
						{
							OFFSET 0.000000 12.319243 0.000000
						}
					}
				}
				JOINT RightPantLeg
				{
					OFFSET -0.919482 -16.533978 -2.284800
					CHANNELS 3 Xrotation Yrotation Zrotation
					End Site
					{
						OFFSET -0.350400 24.744419 0.000000
					}
				}
			}
		}
	}
	JOINT Spine
	{
		OFFSET 0.000000 7.722000 1.166200
		CHANNELS 3 Xrotation Yrotation Zrotation
		JOINT Spine1
		{
			OFFSET 0.000000 12.024101 0.248800
			CHANNELS 3 Xrotation Yrotation Zrotation
			JOINT Spine2
			{
				OFFSET 0.000000 11.502998 -0.491200
				CHANNELS 3 Xrotation Yrotation Zrotation
				JOINT Neck
				{
					OFFSET 0.000000 18.430702 -3.123100
					CHANNELS 3 Xrotation Yrotation Zrotation
					JOINT Head
					{
						OFFSET 0.000000 9.051102 1.034000
						CHANNELS 3 Xrotation Yrotation Zrotation
						JOINT HairB
						{
							OFFSET 0.208400 24.786102 24.822300
							CHANNELS 3 Xrotation Yrotation Zrotation
							End Site
							{
								OFFSET 0.000000 32.263779 0.000000
							}
						}
						JOINT HairA
						{
							OFFSET -7.081100 24.428299 23.196600
							CHANNELS 3 Xrotation Yrotation Zrotation
							End Site
							{
								OFFSET 0.000000 32.263779 0.000000
							}
						}
						JOINT Hat
						{
							OFFSET 16.728800 15.048294 -15.439601
							CHANNELS 3 Xrotation Yrotation Zrotation
							End Site
							{
								OFFSET 0.000000 32.263779 0.000000
							}
						}
					}
				}
				JOINT LeftShoulder
				{
					OFFSET 6.197800 13.665199 -4.064700
					CHANNELS 3 Xrotation Yrotation Zrotation
					JOINT LeftArm
					{
						OFFSET 7.778100 -0.187103 -1.709300
						CHANNELS 3 Xrotation Yrotation Zrotation
						JOINT LeftForeArm
						{
							OFFSET 22.049376 0.000000 0.000000
							CHANNELS 3 Xrotation Yrotation Zrotation
							JOINT LeftHand
							{
								OFFSET 23.009392 0.000000 0.000000
								CHANNELS 3 Xrotation Yrotation Zrotation
								JOINT LeftHandThumb1
								{
									OFFSET 3.507191 -2.063065 3.133727
									CHANNELS 3 Xrotation Yrotation Zrotation
									JOINT LeftHandThumb2
									{
										OFFSET 3.101337 -1.790558 1.790558
										CHANNELS 3 Xrotation Yrotation Zrotation
										JOINT LeftHandThumb3
										{
											OFFSET 3.058640 -1.765907 1.765906
											CHANNELS 3 Xrotation Yrotation Zrotation
											End Site
											{
												OFFSET -0.415260 3.926476 -0.049563
											}
										}
									}
								}
								JOINT LeftHandIndex1
								{
									OFFSET 11.334419 -0.901459 3.706815
									CHANNELS 3 Xrotation Yrotation Zrotation
									JOINT LeftHandIndex2
									{
										OFFSET 3.283112 0.000000 0.000000
										CHANNELS 3 Xrotation Yrotation Zrotation
										JOINT LeftHandIndex3
										{
											OFFSET 3.323853 0.000000 0.000000
											CHANNELS 3 Xrotation Yrotation Zrotation
											End Site
											{
												OFFSET -1.135597 3.097809 0.402452
											}
										}
									}
								}
								JOINT LeftHandMiddle1
								{
									OFFSET 11.335861 0.000000 0.000000
									CHANNELS 3 Xrotation Yrotation Zrotation
									JOINT LeftHandMiddle2
									{
										OFFSET 3.410492 0.000000 0.000000
										CHANNELS 3 Xrotation Yrotation Zrotation
										JOINT LeftHandMiddle3
										{
											OFFSET 3.312172 0.000000 0.000000
											CHANNELS 3 Xrotation Yrotation Zrotation
											End Site
											{
												OFFSET -1.150200 3.080154 0.400270
											}
										}
									}
								}
								JOINT LeftHandRing1
								{
									OFFSET 11.514786 -0.013176 -3.003090
									CHANNELS 3 Xrotation Yrotation Zrotation
									JOINT LeftHandRing2
									{
										OFFSET 3.053307 0.000000 0.000000
										CHANNELS 3 Xrotation Yrotation Zrotation
										JOINT LeftHandRing3
										{
											OFFSET 3.295807 0.000000 0.000000
											CHANNELS 3 Xrotation Yrotation Zrotation
											End Site
											{
												OFFSET -1.281006 3.013344 0.375733
											}
										}
									}
								}
								JOINT LeftHandPinky1
								{
									OFFSET 10.518692 -0.960396 -5.730441
									CHANNELS 3 Xrotation Yrotation Zrotation
									JOINT LeftHandPinky2
									{
										OFFSET 2.861649 0.000000 0.000000
										CHANNELS 3 Xrotation Yrotation Zrotation
										JOINT LeftHandPinky3
										{
											OFFSET 2.863380 0.000000 0.000000
											CHANNELS 3 Xrotation Yrotation Zrotation
											End Site
											{
												OFFSET -0.843597 2.711159 0.369971
											}
										}
									}
								}
							}
							JOINT LSleeve
							{
								OFFSET 6.676277 -0.344902 -1.011730
								CHANNELS 3 Xrotation Yrotation Zrotation
								End Site
								{
									OFFSET 0.000000 14.885353 0.000000
								}
							}
						}
					}
				}
				JOINT RightShoulder
				{
					OFFSET -6.197800 13.665199 -4.064700
					CHANNELS 3 Xrotation Yrotation Zrotation
					JOINT RightArm
					{
						OFFSET -7.778100 -0.187103 -1.709300
						CHANNELS 3 Xrotation Yrotation Zrotation
						JOINT RightForeArm
						{
							OFFSET -22.049376 0.000000 0.000000
							CHANNELS 3 Xrotation Yrotation Zrotation
							JOINT RightHand
							{
								OFFSET -23.009392 0.000000 0.000000
								CHANNELS 3 Xrotation Yrotation Zrotation
								JOINT RightHandThumb1
								{
									OFFSET -3.507191 -2.063065 3.133727
									CHANNELS 3 Xrotation Yrotation Zrotation
									JOINT RightHandThumb2
									{
										OFFSET -3.101337 -1.790558 1.790558
										CHANNELS 3 Xrotation Yrotation Zrotation
										JOINT RightHandThumb3
										{
											OFFSET -3.058640 -1.765907 1.765906
											CHANNELS 3 Xrotation Yrotation Zrotation
											End Site
											{
												OFFSET 0.415260 3.926476 -0.049563
											}
										}
									}
								}
								JOINT RightHandIndex1
								{
									OFFSET -11.334419 -0.901459 3.706815
									CHANNELS 3 Xrotation Yrotation Zrotation
									JOINT RightHandIndex2
									{
										OFFSET -3.283112 0.000000 0.000000
										CHANNELS 3 Xrotation Yrotation Zrotation
										JOINT RightHandIndex3
										{
											OFFSET -3.323853 0.000000 0.000000
											CHANNELS 3 Xrotation Yrotation Zrotation
											End Site
											{
												OFFSET 1.135597 3.097809 0.402452
											}
										}
									}
								}
								JOINT RightHandMiddle1
								{
									OFFSET -11.335861 0.000000 0.000000
									CHANNELS 3 Xrotation Yrotation Zrotation
									JOINT RightHandMiddle2
									{
										OFFSET -3.410492 0.000000 0.000000
										CHANNELS 3 Xrotation Yrotation Zrotation
										JOINT RightHandMiddle3
										{
											OFFSET -3.312172 0.000000 0.000000
											CHANNELS 3 Xrotation Yrotation Zrotation
											End Site
											{
												OFFSET 1.150200 3.080154 0.400270
											}
										}
									}
								}
								JOINT RightHandRing1
								{
									OFFSET -11.514786 -0.013176 -3.003090
									CHANNELS 3 Xrotation Yrotation Zrotation
									JOINT RightHandRing2
									{
										OFFSET -3.053307 0.000000 0.000000
										CHANNELS 3 Xrotation Yrotation Zrotation
										JOINT RightHandRing3
										{
											OFFSET -3.295807 0.000000 0.000000
											CHANNELS 3 Xrotation Yrotation Zrotation
											End Site
											{
												OFFSET 1.281006 3.013344 0.375733
											}
										}
									}
								}
								JOINT RightHandPinky1
								{
									OFFSET -10.518692 -0.960396 -5.730441
									CHANNELS 3 Xrotation Yrotation Zrotation
									JOINT RightHandPinky2
									{
										OFFSET -2.861649 0.000000 0.000000
										CHANNELS 3 Xrotation Yrotation Zrotation
										JOINT RightHandPinky3
										{
											OFFSET -2.863380 0.000000 0.000000
											CHANNELS 3 Xrotation Yrotation Zrotation
											End Site
											{
												OFFSET 0.843597 2.711159 0.369971
											}
										}
									}
								}
							}
							JOINT RSleeve
							{
								OFFSET -6.676277 -0.344902 -1.011730
								CHANNELS 3 Xrotation Yrotation Zrotation
								End Site
								{
									OFFSET 0.000000 14.885353 0.000000
								}
							}
						}
					}
				}
				JOINT Backpack
				{
					OFFSET 0.000000 -2.471497 36.677502
					CHANNELS 3 Xrotation Yrotation Zrotation
					End Site
					{
						OFFSET 0.000000 20.427315 0.000000
					}
				}
				JOINT Hood
				{
					OFFSET 0.000000 18.754097 -10.431000
					CHANNELS 3 Xrotation Yrotation Zrotation
					JOINT Hood1
					{
						OFFSET 0.000000 -5.011002 -7.685901
						CHANNELS 3 Xrotation Yrotation Zrotation
						End Site
						{
							OFFSET 0.000000 9.175140 0.000000
						}
					}
				}
				JOINT LHoodieString
				{
					OFFSET 5.250500 16.397697 3.089900
					CHANNELS 3 Xrotation Yrotation Zrotation
					JOINT LHoodieString1
					{
						OFFSET 0.257700 -6.364304 3.694600
						CHANNELS 3 Xrotation Yrotation Zrotation
						JOINT LHoodieString2
						{
							OFFSET 0.000000 -9.643799 2.679100
							CHANNELS 3 Xrotation Yrotation Zrotation
							End Site
							{
								OFFSET 0.000000 10.009018 0.000000
							}
						}
					}
				}
				JOINT RHoodieString
				{
					OFFSET -5.250500 16.397697 3.089900
					CHANNELS 3 Xrotation Yrotation Zrotation
					JOINT RHoodieString1
					{
						OFFSET -0.257700 -6.364304 3.694600
						CHANNELS 3 Xrotation Yrotation Zrotation
						JOINT RHoodieString2
						{
							OFFSET 0.000000 -9.643799 2.679100
							CHANNELS 3 Xrotation Yrotation Zrotation
							End Site
							{
								OFFSET 0.000000 10.009018 0.000000
							}
						}
					}
				}
			}
			JOINT LBackpack_Strap
			{
				OFFSET 15.223200 -7.719803 -6.610900
				CHANNELS 3 Xrotation Yrotation Zrotation
				End Site
				{
					OFFSET 0.000000 16.040596 0.000000
				}
			}
			JOINT RBackpack_Strap
			{
				OFFSET -15.223000 -7.719803 -6.610900
				CHANNELS 3 Xrotation Yrotation Zrotation
				End Site
				{
					OFFSET 0.000000 16.040596 0.000000
				}
			}
		}
	}
	JOINT BoyFacialAnim_Joint
	{
		OFFSET 1.000000 -82.208099 -1.550900
		CHANNELS 3 Xrotation Yrotation Zrotation
		End Site
		{
			OFFSET 0.000000 30.012791 0.000000
		}
	}
}
MOTION
Frames: 4
Frame Time: 0.033333
-0.291235 96.528366 0.987219 4.026920 2.210147 16.867668 -0.000000 -0.000000 -0.000002 -80.153991 21.160717 -3.998085 100.789447 5.909829 0.317105 -26.580769 -0.974543 4.337275 0.000000 0.000001 0.000000 0.000000 0.000001 -0.000000 -0.000001 0.000000 0.000000 -20.905134 -10.233425 -21.748226 11.322948 -9.777668 0.487637 36.202342 2.246252 3.932749 0.000001 0.000001 -0.000001 0.000001 0.000001 -0.000001 -0.000000 0.000001 0.000000 23.354157 -6.245498 -10.828534 5.621888 -1.003419 -2.351323 5.636442 -0.975462 -2.327454 -18.674004 -0.245023 2.156751 -6.264402 3.287498 3.526207 0.000000 0.000000 0.000000 0.000000 0.000000 0.000000 0.000000 0.000000 0.000000 -0.526418 12.453444 11.586018 -101.279452 -3.311709 -73.392199 0.000020 -68.759091 0.000031 -20.751173 11.520718 21.448978 -1.540034 3.690192 6.142352 3.939067 7.948704 0.746814 0.000001 0.000001 -0.000004 0.000047 -0.021354 0.177085 0.000030 0.021405 -0.177488 0.000000 -0.000001 -0.000004 0.000041 -0.023281 0.193068 0.000049 0.023345 -0.193475 0.000002 -0.000002 -0.000000 0.000040 -0.021359 0.177086 0.000042 0.021421 -0.177485 -0.000003 0.000002 0.000002 -0.030596 4.032810 0.688574 -0.017862 -4.032838 -0.688533 0.000001 0.000003 -0.000001 -0.000000 -0.000003 0.000001 0.722816 -4.049723 5.416736 -111.514907 29.800754 70.408746 0.000089 64.618241 -0.000077 -6.733596 -5.148545 2.676156 -1.849262 -3.581794 -6.586157 4.637196 -8.634124 -0.225413 -0.000002 0.000005 -0.000002 0.000031 0.021578 -0.177168 0.000037 -0.021692 0.178010 0.000000 0.000003 0.000002 0.000029 0.021579 -0.177155 0.000033 -0.021686 0.178008 0.000005 0.000000 -0.000002 0.000030 0.021574 -0.177159 0.000024 -0.021682 0.178014 0.000000 0.000001 0.000002 0.000022 0.021586 -0.177157 0.000039 -0.021700 0.178011 0.000003 -0.000004 -0.000000 -0.000001 -0.000001 0.000001 -0.000000 0.000000 -0.000000 -0.000000 0.000000 -0.000000 -0.000000 0.000000 -0.000000 -0.000000 0.000000 -0.000000 -0.000000 0.000000 -0.000000 -0.000000 -0.000000 0.000000 -0.000000 0.000000 -0.000000 -0.000000 0.000000 -0.000000 -0.000000 -0.000000 0.000000 -0.000001 -0.000000 -0.000000 -0.000001 -0.000000 -0.000000 -0.000000 -0.000000 -0.000002 
-0.061850 99.290215 1.392819 4.674836 0.737223 15.481059 0.000000 -0.000000 -0.000000 -76.618351 18.971660 -5.136202 95.608906 6.877608 0.384556 -25.760531 0.663723 3.132882 -0.000000 0.000000 0.000000 -0.000000 0.000000 0.000000 -0.000000 -0.000000 0.000000 -24.794831 -7.886142 -20.807391 21.341300 -9.932396 0.357902 33.302988 1.370231 2.359989 0.000000 -0.000003 0.000001 0.000000 -0.000003 0.000001 0.000000 -0.000003 -0.000000 22.698409 -6.630932 -10.372599 5.526337 -1.222744 -2.203386 5.554583 -1.184098 -2.156297 -17.609187 -0.141177 2.611759 -4.188117 4.174747 4.159512 0.000001 0.000000 0.000000 0.000001 0.000000 0.000000 0.000001 0.000000 0.000000 0.763412 8.801939 9.971645 -94.302318 -1.576880 -70.480804 0.000206 -76.828317 0.000217 -18.434237 11.023481 19.653787 -1.540033 3.690188 6.142351 3.939064 7.948702 0.746812 0.000001 -0.000001 0.000002 0.000047 -0.021357 0.177082 0.000032 0.021410 -0.177491 -0.000002 0.000001 -0.000005 0.000043 -0.023286 0.193064 0.000049 0.023341 -0.193474 0.000000 0.000003 0.000001 0.000039 -0.021364 0.177083 0.000039 0.021426 -0.177491 -0.000001 -0.000003 -0.000003 -0.030594 4.032811 0.688568 -0.017863 -4.032837 -0.688537 0.000001 -0.000000 -0.000000 0.000001 -0.000001 -0.000001 1.692413 1.008313 5.211141 -102.941592 30.107419 64.684637 0.000050 71.019043 -0.000055 -8.668655 -5.025191 2.642304 -1.849258 -3.581794 -6.586150 4.637203 -8.634128 -0.225408 0.000000 0.000003 0.000000 0.000032 0.021576 -0.177165 0.000035 -0.021699 0.178012 -0.000002 0.000001 0.000000 0.000037 0.021578 -0.177156 0.000035 -0.021691 0.178009 -0.000000 0.000000 0.000003 0.000032 0.021575 -0.177153 0.000029 -0.021693 0.178019 -0.000001 0.000002 0.000002 0.000027 0.021586 -0.177157 0.000035 -0.021699 0.178013 0.000003 0.000001 -0.000003 0.000001 0.000001 -0.000000 -0.000001 -0.000000 -0.000000 -0.000001 -0.000000 -0.000000 -0.000001 -0.000000 -0.000000 -0.000001 -0.000000 -0.000000 -0.000001 -0.000000 -0.000000 -0.000002 0.000000 0.000000 -0.000001 -0.000000 -0.000000 -0.000001 -0.000000 -0.000000 -0.000002 0.000000 0.000000 -0.000001 0.000000 -0.000000 -0.000001 0.000000 -0.000000 0.000000 -0.000000 -0.000000 
0.168034 101.899452 2.047459 4.909684 0.124999 14.637674 -0.000000 -0.000000 -0.000000 -72.815165 17.106233 -6.647039 90.802584 7.885915 0.458830 -24.907058 2.352166 1.411000 -0.000000 -0.000000 -0.000000 -0.000000 -0.000000 -0.000000 0.000000 0.000000 0.000000 -29.155110 -5.609973 -20.528496 32.834427 -10.060030 0.250851 33.039657 -0.581400 0.097051 0.000001 -0.000000 0.000003 0.000001 -0.000000 0.000003 0.000000 -0.000000 0.000000 21.750990 -7.039105 -10.239875 5.347956 -1.368449 -2.069385 5.384434 -1.324887 -2.008704 -16.524246 -0.046623 2.838806 -1.949784 5.040918 4.490128 -0.000000 -0.000000 -0.000000 -0.000000 -0.000000 -0.000000 -0.000000 -0.000000 -0.000000 2.165624 4.320393 7.360277 -87.573339 -2.561070 -66.497137 0.000692 -82.095356 0.000689 -17.142644 9.591966 18.733425 -1.540033 3.690189 6.142352 3.939064 7.948698 0.746814 -0.000001 0.000003 0.000001 0.000046 -0.021353 0.177085 0.000031 0.021407 -0.177496 -0.000000 -0.000003 -0.000006 0.000040 -0.023282 0.193064 0.000048 0.023347 -0.193473 0.000001 -0.000004 0.000003 0.000042 -0.021358 0.177084 0.000035 0.021421 -0.177497 0.000000 0.000003 0.000000 -0.030596 4.032816 0.688572 -0.017864 -4.032835 -0.688533 0.000002 -0.000001 -0.000000 -0.000002 0.000001 -0.000000 1.752071 2.524907 4.729597 -93.655130 28.594000 62.274099 0.000290 75.243959 -0.000292 -9.520837 -1.954975 2.408954 -1.849262 -3.581802 -6.586153 4.637200 -8.634129 -0.225410 0.000003 0.000002 0.000002 0.000033 0.021578 -0.177162 0.000031 -0.021697 0.178009 -0.000001 0.000001 0.000002 0.000036 0.021574 -0.177154 0.000030 -0.021686 0.178003 -0.000001 0.000000 -0.000000 0.000036 0.021576 -0.177157 0.000031 -0.021681 0.178010 -0.000002 -0.000001 0.000002 0.000028 0.021586 -0.177155 0.000034 -0.021692 0.178014 -0.000002 -0.000003 0.000005 -0.000001 -0.000001 -0.000002 -0.000002 0.000000 0.000000 -0.000002 0.000000 0.000000 -0.000002 0.000000 0.000000 -0.000002 0.000000 0.000000 -0.000002 0.000000 0.000000 -0.000004 0.000000 0.000000 -0.000002 0.000000 0.000000 -0.000002 0.000000 0.000000 -0.000004 0.000000 0.000000 -0.000001 0.000000 -0.000000 -0.000001 0.000000 -0.000000 -0.000000 -0.000000 -0.000000 
0.453535 104.380722 2.891067 4.950249 -0.814523 13.586859 0.000001 0.000000 0.000000 -69.061231 15.063135 -7.860215 86.406408 9.211903 0.571370 -23.819576 4.353659 -0.164414 -0.000000 0.000001 0.000000 -0.000000 0.000001 0.000000 -0.000000 -0.000000 -0.000000 -33.171439 -3.972160 -20.068113 43.692669 -10.150755 0.206318 34.637334 -2.358893 -1.600160 0.000005 -0.000001 0.000002 0.000005 -0.000001 0.000002 0.000001 0.000001 -0.000001 20.416614 -6.978705 -9.695002 5.040229 -1.386084 -1.876221 5.077343 -1.342571 -1.814213 -15.119298 0.047600 2.820294 0.212418 5.739309 4.651756 -0.000002 0.000000 0.000000 -0.000002 0.000000 0.000000 -0.000002 0.000000 0.000000 3.520645 -1.148805 3.742588 -80.535000 -4.595556 -60.049049 0.001348 -85.024401 0.001344 -17.046207 6.950619 18.318417 -1.540033 3.690189 6.142351 3.939066 7.948703 0.746811 -0.000002 0.000000 -0.000000 0.000049 -0.021354 0.177086 0.000029 0.021409 -0.177494 0.000000 0.000003 -0.000005 0.000042 -0.023280 0.193060 0.000047 0.023345 -0.193472 -0.000000 -0.000001 0.000000 0.000039 -0.021358 0.177084 0.000041 0.021424 -0.177488 -0.000001 0.000001 0.000002 -0.030597 4.032811 0.688569 -0.017862 -4.032834 -0.688534 0.000003 -0.000002 0.000001 -0.000000 0.000000 -0.000001 1.542721 2.510594 4.476088 -85.214656 26.916520 63.464069 0.000076 77.072415 -0.000092 -7.916506 3.198827 1.234302 -1.849257 -3.581796 -6.586153 4.637200 -8.634128 -0.225407 0.000001 -0.000001 0.000002 0.000038 0.021579 -0.177164 0.000037 -0.021696 0.178011 0.000001 0.000000 0.000000 0.000036 0.021576 -0.177155 0.000037 -0.021689 0.178004 0.000001 0.000001 0.000003 0.000037 0.021574 -0.177157 0.000028 -0.021688 0.178014 0.000000 -0.000002 -0.000002 0.000028 0.021586 -0.177153 0.000038 -0.021698 0.178013 0.000003 0.000002 0.000001 0.000002 -0.000001 -0.000002 0.000000 -0.000000 0.000000 0.000000 -0.000000 0.000000 0.000000 -0.000000 0.000000 0.000000 -0.000000 0.000000 0.000000 -0.000000 0.000000 -0.000001 -0.000000 0.000000 0.000000 -0.000000 0.000000 0.000000 -0.000000 0.000000 -0.000001 -0.000000 0.000000 -0.000001 0.000000 0.000000 -0.000001 0.000000 0.000000 0.000001 0.000000 0.000000 
